<?xml version="1.0" encoding="UTF-8"?>
<!-- Generated by Pixelmator Pro 2.4.5 -->
<svg width="400" height="400" viewBox="0 0 400 400" xmlns="http://www.w3.org/2000/svg" xmlns:xlink="http://www.w3.org/1999/xlink">
    <path id="Rounded-Rectangle" fill="#00a2ff" fill-rule="evenodd" stroke="none" d="M 55 25 C 38.431599 25 25 38.43161 25 55 L 25 345 C 25 361.56839 38.431599 375 55 375 L 345 375 C 361.56839 375 375 361.56839 375 345 L 375 55 C 375 38.43161 361.56839 25 345 25 Z"/>
    <path id="stamp-solid" fill="#ffffff" stroke="none" d="M 264.570313 200 L 284.375 200 C 320.644531 200 350 229.355469 350 265.625 C 350 277.871094 342.148438 288.300781 331.25 292.167969 L 331.25 321.875 C 331.25 337.402344 318.652344 350 303.125 350 L 96.875 350 C 81.341797 350 68.75 337.402344 68.75 321.875 L 68.75 292.167969 C 57.828125 288.300781 50 277.871094 50 265.625 C 50 229.355469 79.378906 200 115.625 200 L 135.429688 200 C 152.949219 200 167.1875 185.761719 167.1875 168.242188 C 167.1875 157.988281 161.796875 148.730469 155.527344 140.703125 C 148.144531 131.152344 143.75 119.199219 143.75 106.25 C 143.75 75.183594 168.417969 50 200 50 C 231.054688 50 256.25 75.183594 256.25 106.25 C 256.25 119.199219 251.855469 131.152344 244.472656 140.703125 C 238.203125 148.730469 232.8125 157.988281 232.8125 168.242188 C 232.8125 185.761719 247.050781 200 264.570313 200 Z M 293.75 293.75 L 106.25 293.75 L 106.25 312.5 L 293.75 312.5 L 293.75 293.75 Z"/>
</svg>
